<svg xmlns="http://www.w3.org/2000/svg" width="337.175" height="22.526" viewBox="0 0 337.175 22.526">
  <g id="Group_136" data-name="Group 136" transform="translate(-303.18 -73.414)">
    <g id="Group_99" data-name="Group 99" transform="translate(433.515 73.414)">
      <path id="Path_68" data-name="Path 68" d="M1.924,3.438a17.481,17.481,0,0,1-5.632-.812A10.6,10.6,0,0,1-7.63.357,9.018,9.018,0,0,1-9.927-3.2a13.542,13.542,0,0,1-.756-4.623V-19.087h6.892V-7.768A6.476,6.476,0,0,0-3.118-4.6,5.1,5.1,0,0,0-1.381-2.726a6.422,6.422,0,0,0,2.353.9A14.652,14.652,0,0,0,3.493-1.6H14.532L12.458,2.374a2.857,2.857,0,0,1-.728.9,2.471,2.471,0,0,1-1.121.168Z" transform="translate(10.683 19.087)" fill="#ff561c"/>
    </g>
    <g id="Group_100" data-name="Group 100" transform="translate(399.782 73.414)">
      <path id="Path_69" data-name="Path 69" d="M3.746,3.045a2.593,2.593,0,0,0-.756-.952A2.488,2.488,0,0,0,1.9,1.924H-8.581L-6.508-2.11a3.336,3.336,0,0,1,.728-.924,2.151,2.151,0,0,1,1.12-.2H.384L-4.1-11.692-13.065,5.622H-20.8q3.139-5.828,5.66-10.478,1.064-1.96,2.1-3.866t1.849-3.446q.813-1.54,1.344-2.521A8.611,8.611,0,0,1-9.2-15.783a2.831,2.831,0,0,1,.728-.951A2.467,2.467,0,0,1-7.348-16.9H.384L12.767,5.622H5.09Z" transform="translate(20.797 16.903)" fill="#ff561c"/>
    </g>
    <g id="Group_101" data-name="Group 101" transform="translate(374.343 73.414)">
      <path id="Path_70" data-name="Path 70" d="M2.848,3.438H-4.044V-14.043H-15.811l2.074-3.979a2.229,2.229,0,0,1,.7-.9,2.471,2.471,0,0,1,1.093-.169H14.672L12.6-15.109a2.889,2.889,0,0,1-.728.9,2.474,2.474,0,0,1-1.121.169H4.3a1.41,1.41,0,0,0-1.036.419,1.41,1.41,0,0,0-.42,1.037Z" transform="translate(15.811 19.087)" fill="#ff561c"/>
    </g>
    <g id="Group_102" data-name="Group 102" transform="translate(345.43 73.414)">
      <path id="Path_71" data-name="Path 71" d="M3.473,3.438H-18.66L-16.531-.6a2.861,2.861,0,0,1,.728-.954,2.488,2.488,0,0,1,1.121-.168H2.184A1.793,1.793,0,0,0,3.5-2.249a1.789,1.789,0,0,0,.532-1.317A1.789,1.789,0,0,0,3.5-4.883a1.789,1.789,0,0,0-1.317-.532H-11.264A10.588,10.588,0,0,1-14.4-5.864a7.417,7.417,0,0,1-2.55-1.344A6.386,6.386,0,0,1-18.66-9.365a6.477,6.477,0,0,1-.617-2.885,6.483,6.483,0,0,1,.617-2.887,6.371,6.371,0,0,1,1.708-2.156,7.4,7.4,0,0,1,2.55-1.345,10.626,10.626,0,0,1,3.138-.448H7.171L5.1-15.052a2.863,2.863,0,0,1-.728.9,2.452,2.452,0,0,1-1.12.168H-11.1a1.677,1.677,0,0,0-1.232.505,1.677,1.677,0,0,0-.505,1.233,1.677,1.677,0,0,0,.505,1.232,1.677,1.677,0,0,0,1.232.505H3.529a7.314,7.314,0,0,1,2.69.5A6.37,6.37,0,0,1,8.431-8.581,7.168,7.168,0,0,1,9.916-6.4a6.888,6.888,0,0,1,.562,2.83A7.078,7.078,0,0,1,9.916-.709,7.049,7.049,0,0,1,8.431,1.505,6.372,6.372,0,0,1,6.219,2.934a7.314,7.314,0,0,1-2.69.5Z" transform="translate(19.277 19.087)" fill="#ff561c"/>
    </g>
    <g id="Group_103" data-name="Group 103" transform="translate(314.611 73.414)">
      <path id="Path_72" data-name="Path 72" d="M3.139,2.643V-14.671h6.892V6.4A1.435,1.435,0,0,1,8.574,7.854H-.279L-10.533-9.461V7.854h-6.893V-13.27A1.315,1.315,0,0,1-17-14.279a1.458,1.458,0,0,1,1.036-.392h8.853Z" transform="translate(17.426 14.671)" fill="#ff561c"/>
    </g>
    <g id="Group_104" data-name="Group 104" transform="translate(625.436 83.067)">
      <path id="Path_73" data-name="Path 73" d="M2.3,0Q6.124,0,7.942,1.747A6.154,6.154,0,0,1,9.763,6.4a7.489,7.489,0,0,1-.444,2.629,5.128,5.128,0,0,1-1.36,2.027,6.264,6.264,0,0,1-2.325,1.293,10.88,10.88,0,0,1-3.331.455,10.873,10.873,0,0,1-3.331-.455,6.252,6.252,0,0,1-2.325-1.293,5.113,5.113,0,0,1-1.36-2.027A7.456,7.456,0,0,1-5.157,6.4a6.158,6.158,0,0,1,1.82-4.655Q-1.517,0,2.3,0m0,10.192a7.537,7.537,0,0,0,1.513-.147,3.147,3.147,0,0,0,1.269-.558,2.891,2.891,0,0,0,.887-1.146A4.73,4.73,0,0,0,6.307,6.4a4.755,4.755,0,0,0-.336-1.924A3,3,0,0,0,5.085,3.3a3.039,3.039,0,0,0-1.269-.572A7.537,7.537,0,0,0,2.3,2.584,7.537,7.537,0,0,0,.79,2.731,3.03,3.03,0,0,0-.479,3.3a3,3,0,0,0-.887,1.175A4.728,4.728,0,0,0-1.7,6.4a4.7,4.7,0,0,0,.337,1.939A2.891,2.891,0,0,0-.479,9.487a3.139,3.139,0,0,0,1.269.558,7.537,7.537,0,0,0,1.513.147" transform="translate(5.157 0)" fill="#2b2e34"/>
    </g>
    <g id="Group_105" data-name="Group 105" transform="translate(606.727 83.425)">
      <path id="Path_74" data-name="Path 74" d="M0,1.91V-10.6H11.581a4.379,4.379,0,0,1,1.758.358,4.6,4.6,0,0,1,1.432.965,4.619,4.619,0,0,1,.964,1.417,4.223,4.223,0,0,1,.359,1.742A4.3,4.3,0,0,1,15.3-3.568,4.528,4.528,0,0,1,13.292-1.95l4.546,3.86H13.043L9-1.607H4.98L6.132-3.849a1.892,1.892,0,0,1,.4-.513,1.208,1.208,0,0,1,.623-.109h3.486a1.577,1.577,0,0,0,1.184-.483A1.616,1.616,0,0,0,12.3-6.122a1.618,1.618,0,0,0-.466-1.167,1.582,1.582,0,0,0-1.184-.483H4.638a.783.783,0,0,0-.576.234.783.783,0,0,0-.234.576V1.91Z" transform="translate(0 10.604)" fill="#2b2e34"/>
    </g>
    <g id="Group_106" data-name="Group 106" transform="translate(567.66 73.414)">
      <path id="Path_75" data-name="Path 75" d="M3.473,3.438H-18.661L-16.532-.6a2.86,2.86,0,0,1,.729-.954,2.485,2.485,0,0,1,1.12-.168H2.184A1.793,1.793,0,0,0,3.5-2.249a1.793,1.793,0,0,0,.532-1.317A1.793,1.793,0,0,0,3.5-4.883a1.789,1.789,0,0,0-1.317-.532H-11.264A10.588,10.588,0,0,1-14.4-5.864a7.417,7.417,0,0,1-2.55-1.344,6.39,6.39,0,0,1-1.709-2.157,6.493,6.493,0,0,1-.616-2.885,6.5,6.5,0,0,1,.616-2.887,6.374,6.374,0,0,1,1.709-2.156,7.4,7.4,0,0,1,2.55-1.345,10.626,10.626,0,0,1,3.138-.448H7.171L5.1-15.052a2.863,2.863,0,0,1-.728.9,2.455,2.455,0,0,1-1.121.168H-11.1a1.681,1.681,0,0,0-1.233.505,1.681,1.681,0,0,0-.5,1.233,1.68,1.68,0,0,0,.5,1.232,1.681,1.681,0,0,0,1.233.505H3.528a7.316,7.316,0,0,1,2.691.5A6.37,6.37,0,0,1,8.431-8.581,7.168,7.168,0,0,1,9.916-6.4a6.887,6.887,0,0,1,.561,2.83A7.078,7.078,0,0,1,9.916-.709,7.049,7.049,0,0,1,8.431,1.505,6.372,6.372,0,0,1,6.219,2.934a7.316,7.316,0,0,1-2.691.5Z" transform="translate(19.277 19.087)" fill="#2b2e34"/>
    </g>
    <g id="Group_107" data-name="Group 107" transform="translate(521.096 73.414)">
      <path id="Path_76" data-name="Path 76" d="M6.851,0q-2.073,5.771-3.7,10.422-.728,1.961-1.4,3.894T.52,17.762q-.561,1.514-.925,2.522t-.42,1.121a2.272,2.272,0,0,1-.7.952,2.677,2.677,0,0,1-1.149.168h-7.732l-5.1-13.5q-.784,2.13-1.54,4.259t-1.4,3.894q-.643,1.765-1.063,2.913c-.281.767-.439,1.2-.477,1.318a1.872,1.872,0,0,1-.673.952,2.885,2.885,0,0,1-1.177.168H-29.57L-38.032,0h6.556l6.388,17.314L-18.924,0h6.612l6.387,17.314L.239,0Z" transform="translate(38.032)" fill="#2b2e34"/>
    </g>
    <g id="Group_108" data-name="Group 108" transform="translate(492.911 73.414)">
      <path id="Path_77" data-name="Path 77" d="M1.274,2.087a1.409,1.409,0,0,0-1.036.42,1.408,1.408,0,0,0-.42,1.036v7.4H-7.074V-11.585h26.9L17.748-7.607a2.856,2.856,0,0,1-.728.9,2.469,2.469,0,0,1-1.12.168H1.274a1.409,1.409,0,0,0-1.036.42,1.405,1.405,0,0,0-.42,1.037v2.353H15.843L13.882,1.022a2.834,2.834,0,0,1-.728.9,2.448,2.448,0,0,1-1.12.169Z" transform="translate(7.074 11.585)" fill="#2b2e34"/>
    </g>
    <g id="Group_109" data-name="Group 109" transform="translate(501.204 90.841)">
      <path id="Path_78" data-name="Path 78" d="M2.865,0,.792,4.034a2.6,2.6,0,0,1-.756.9A2.488,2.488,0,0,1-1.058,5.1H-15.906l2.074-4.034a2.244,2.244,0,0,1,.7-.9A2.492,2.492,0,0,1-12.04,0Z" transform="translate(15.906 0)" fill="#2b2e34"/>
    </g>
    <g id="Group_110" data-name="Group 110" transform="translate(460.971 73.414)">
      <path id="Path_79" data-name="Path 79" d="M3.139,2.643V-14.671h6.892V6.4A1.435,1.435,0,0,1,8.574,7.854H-.279L-10.533-9.461V7.854h-6.893V-13.27A1.315,1.315,0,0,1-17-14.279a1.458,1.458,0,0,1,1.036-.392h8.853Z" transform="translate(17.426 14.671)" fill="#2b2e34"/>
    </g>
    <path id="Path_81" data-name="Path 81" d="M1-9.138H7.949V-31.663H1Z" transform="translate(302.18 105.077)" fill="#ff561c"/>
    <path id="Path_82" data-name="Path 82" d="M256.154-11.992h-3.828V-15.82h3.828Z" transform="translate(347.453 107.931)" fill="#2b2e34"/>
  </g>
</svg>
